<svg xmlns="http://www.w3.org/2000/svg" version="1.1" viewBox="0 0 1024 1024" width="1024" height="1024">
<path transform="translate(495,213)" d="m0 0h37l22 3 13 2v2l9 1 10 4 12 5 19 9 10 6 13 8 1 2 6 2 4 4 5 3v2l5 1 8 8 3 1 7 8 5 4 3 5 10 12 4 6 5 5 7 12 4 6v3h2l6 15 3 3 4 13 5 16 2 11 2 16 1 22v13l-3 13-1 10-4 16-4 12-5 10-3 7-9 16-3 9h-3l-1 5-5 10-9 13-12 17-9 9-7 8-14 12-18 12-20 12-12 6-14 6-26 7-20 3-12 1h-29l-19-2-24-5-24-8-23-11-24-14-3-2v-2l-4-2-10-9-2-1v-2h-2v-2l-4-2-8-8v-2h-2v-2h-2l-8-10v-2h-2l-18-27-9-19-3-5-5-14-3-6-3-11-3-8-3-17-1-2-1-14-1-4v-40l2-14 3-12 3-15 3-8 3-9 6-15h2l1-4 3-7 8-15 2-4h2l2-5 4-7h2v-2h2l2-5 2-3h2v-2h2v-2h2l2-4 16-17 7-7 5-4h2v-2l12-8h2v-2l3-2h3v-2l9-6 4-2h3v-2l12-6 5 1 3 4 1 5 1 29 22 8 5 1v-11l1-9 1-2v-22l12-3z" fill="#FDD67A"/>
<path transform="translate(417,237)" d="m0 0h1l-1 14v10l2 6 13 3 12 3 18 8 10 7 10 10 5 9 6 11 8 9 7 3 4-4 7 1 5 4 3 7-1 6-4 4-5 2-7-1-6-7v-6l-6 2 1 8 4 4v5l-7 11-8 8-15 10-8 6-6 7-3 6-1 4v26l2 10 6 16 9 16 12 14 5 6 8 7 16 13 14 10 14 12 9 9 7 8 10 14 6 11 8 17 8 24 2 8-8 4-19 6-22 4-9 1h-30l-25-3-25-6-12-4-15-7-21-11-16-11-16-13-7-7-9-11-10-12-10-15-9-15-10-23-6-19-5-23-2-17v-30l2-21 4-25 7-22 7-15 4-8 9-15 8-11 7-9 4-4 4-5 8-8h2l2-4 5-4h2l2-4 5-4h2v-2l19-12z" fill="#EEEBDC"/>
<path transform="translate(442,455)" d="m0 0 12 1 3-1v2l3 1 6 9 3 3 8 11 11 12 5 5 11 10 19 14 11 9 10 9 14 15 9 13 6 11 8 17 8 24 2 8-8 4-19 6-22 4-9 1h-30l-25-3-25-6-12-4-15-7-19-10v-2l-1-2h-2l-2-6v-5h-6l-5-14-6-13v-8l-3-3 1-4 4-10 4-8 3-8 5-3 1-8 5-2h3l-1-14-1-8v-7l5-10 2-10 3-1 2-5 7-4 15-2z" fill="#F1C9A8"/>
<path transform="translate(613,325)" d="m0 0h22l14 4 9 4 2 1v2l4 1 2 1v2l5 2 5 4v2l3 1 7 8 7 9 9 17 6 17 6 20 3 31 1 1v25l-3 24-1 11-2 5-5 4-7 2-5-1v-13l3-26 1-3v-45l-2-4-4-24-3-10h-2l-6-14-4-8-7-9-9-9-13-8-12-4h-28l-10 5-4 5-3 3-5 6-2 10v19l2 9 7 9 9 6 6 2h17v-2l4-2 5-8 4-4 2-4 5 3 4 13 1 8-1 6-3 1-4 4-13 4h-15l-15-3-8-3 1 4 7 2-1 3h-5l1 3 4 4 2 4 6 2v5l2-1v-2l13-1 2 3 2 2v6 2l2 4v8l-2 3 1 7 3 6 5 6 3 5-1 4 17 2 6 2 5 6 1 7 1 5 6 4v2l7 1 1-2h3 2l1-2 1 2-10 19-12 17-12 13-9 9-10 7-18 12-9 5-4 1-5-23-11-24-9-16-10-13-12-13-8-8-8-7-14-11-16-12-10-9-11-14-8-13-6-13 1-3v2h2l4 10 6 6 1 3 2 1 3 7 7 4v2l2 1 1-1 3-5 5-1h9l12 1 5-1 2 1v-2l3-1-4-4h-11l-2-2-12-1-2-1 1-5 3-1h11l2-1h11l6-4 13-3 4-4-1-3h2l-1-5-2-5 5-5 3 1h6l1-2 4 4 4 1 6 3-4-4-3-2v-2h-2l-7-9-7-14-2-7-1-9v-9l1-9 9-18 11-12 10-6 8-4z" fill="#F1C8A7"/>
<path transform="translate(426,214)" d="m0 0 5 1 3 4 1 5 1 29 22 8 8 3 10 6 13 11 9 11 6 10 6 15 4 7 2 2-5 2-4 3-7-4-8-9-9-17-9-10-7-6-16-8-14-5-16-3-4-4-1-4v-10l1-13-9 6-16 10-3 1v2l-8 6-3 3-6 5-3 3h-2l-2 4-5 5-5 8h-2l-10 13-10 16-6 10-5 12-5 11-5 17-4 25-2 21v30l3 22 6 25 8 22 8 17 14 22 13 16 12 14 11 10 19 14 24 13 16 7 10 4 23 6 19 3 11 1h30l27-4 20-6 10-4-2-8-10-29-8-16-8-13-8-10-14-15-14-12-15-11-10-8-10-9-12-12-10-13-8-15-6-17-1-7v-26l3-8 4-6 7-7 17-11 10-9 7-11v-5l-4-4-1-5 1-3 3-2h3l2 7 4 5 8 3-1 9-4 9-9 11-10 9-16 11-3 1v2h-2v26l3 14 9 19 10 14 11 13 14 11 8 6 14 11 16 15 8 8 9 11 10 15 14 29 4 16 1 10 11-6 10-6 8-6 9-6 10-9 9-9 10-13 11-18 9-17 2-3 12-2 3-1 3 3-3 11-5 12-11 16-12 17-9 9-7 8-14 12-18 12-20 12-12 6-14 6-26 7-20 3-12 1h-29l-19-2-24-5-24-8-23-11-24-14-3-2v-2l-4-2-10-9-2-1v-2h-2v-2l-4-2-8-8v-2h-2v-2h-2l-8-10v-2h-2l-18-27-9-19-3-5-5-14-3-6-3-11-3-8-3-17-1-2-1-14-1-4v-40l2-14 3-12 3-15 3-8 3-9 6-15h2l1-4 3-7 8-15 2-4h2l2-5 4-7h2v-2h2l2-5 2-3h2v-2h2v-2h2l2-4 16-17 7-7 5-4h2v-2l12-8h2v-2l3-2h3v-2l9-6 4-2h3v-2z" fill="#4F656D"/>
<path transform="translate(609,344)" d="m0 0h28l16 6 11 8 11 11 4 6 6 11 3 11h2l5 14 3 20 2 4v45l-2 11-2 18v13l8-1 5-3 4-6 3-30 1-5v-25l-1-1-3-31-8-26-5-13-3-5 1-2 3 4v2h2l4 6 10 12 5 5 4 3v2h2v2l3 1 6 9 3 4 2 9v13l-3 13-1 10-4 16-4 12-5 10-3 7-9 16-3 9h-2l2-13-5 1-12 1-2 5-5 5-8 3-5-2-1-2-5-3-2-3v-8l-4-6-4-2-20-4-1-5-3-6-4-4-4-9 1-6 1-1v-8l-3-5 1-7-4-2v-2h-12l1 3h-3v-5l-7-2-3-5v-2l-4-2 3-3 2-1-3-2-3-3v-2l8 2 15 3h15l13-4 3-1 1-3h3l-1-4 1-7-4-11-2-6-3-1-3 5-5 6-3 5-4 1v2l-2 1h-15l-10-4-7-6-6-8-2-9v-19l2-10 5-6 2-3h2l2-4 5-4z" fill="#EAB088"/>
<path transform="translate(466,228)" d="m0 0 2 3v2l4 2 8 8v2l3 1v2h2v2h2l9 11 3 3v2h2v2h2l1 4 4 2 1 3h2l7 8 8 7 6 7v2h2l12 16 1 3h2l3 4v2h2v2h2v2l5 2 7 8 5 8v7l-6 13-1 8v9l2 13 5 11 5 9 4 4v2h2l4 4 3 2v2l-6-2-5-2-3-3-7 2-3-1-4 4 2 5 1 3-2 3 1 3-5 4-13 3-6 4h-11l-2 1h-13l-2 5 14 1 2 2h11l5 5-4 1v2l-9 1-17-1h-6l-3 5-1 2-2-1-4-4-5-3-2-4v-3l-3-1-2-4-5-5-3-6v-4l-4-1-3-14v-21l1-5h2v-2l16-11 10-9 5-5 7-8 4-13 1-4-3-1 8-4 3-4-1-8-4-5-9-6-7-15-4-9-7-11-9-10-13-10-10-5 2-21 1-2z" fill="#E9B76D"/>
<path transform="translate(501,336)" d="m0 0h3l2 7 4 5 8 3-1 9-4 9-9 11-10 9-16 11-3 1v2h-2v26l3 14 9 19 10 14 11 13 14 11 8 6 14 11 16 15 8 8 9 11 10 15 14 29 4 16 1 10 11-6 10-6 8-6 9-6 10-9 9-9 10-13 11-18 9-17 2-3 12-2 3-1 3 3-3 11-5 12-11 16-12 17-9 9-7 8-14 12-18 12-20 12-12 6-14 6-26 7-20 3-12 1h-29l-19-2-24-5-4-2 2-1-7-2 5-5 5-1 4-1 1-3 6-1 24 4 11 1h30l27-4 20-6 10-4-2-8-10-29-8-16-8-13-8-10-14-15-14-12-15-11-10-8-10-9-12-12-10-13-8-15-6-17-1-7v-26l3-8 4-6 7-7 17-11 10-9 7-11v-5l-4-4-1-5 1-3z" fill="#4F656D"/>
<path transform="translate(613,325)" d="m0 0h22l14 4 9 4 2 1v2l4 1 2 1v2l5 2 5 4v2l3 1 7 8 7 9 9 17 6 17 6 20 3 31 1 1v25l-3 24-1 11-2 5-5 4-7 2-5-1v-13l3-26 1-3v-45l-2-4-4-24-3-10h-2l-6-14-4-8-7-9-9-9-13-8-12-4h-28l-10 5-4 5-3 3-5 6-2 10v19l2 9 7 9 9 6 6 2h17v-2l4-2 5-8 4-4 2-4 5 3 4 13 1 8-1 6-3 1-4 4-13 4h-15l-15-3-9-4-7-5v-2h-2l-7-9-7-14-2-7-1-9v-9l1-9 9-18 11-12 10-6 8-4z" fill="#EFECDE"/>
<path transform="translate(609,344)" d="m0 0h28l16 6 11 8 11 11 4 6 2 5 1 8-2 4-3 1-4 8-8 1v2l-9 1-2 1v17l-3 5-2-3 1-7-4-11-2-6-3-1-3 5-5 6-3 5-4 1v2l-2 1h-15l-10-4-7-6-6-8-2-9v-19l2-10 5-6 2-3h2l2-4 5-4z" fill="#E9B76E"/>
<path transform="translate(706,525)" d="m0 0 4 1 1 3-4 13-6 12-9 13-12 17-9 9-7 8-14 12-18 12-20 12-12 6-14 6-26 7-20 3-12 1h-29l-19-2-24-5-4-2 2-1-7-2 5-5 5-1 4-1 1-3 6-1 24 4 11 1h30l27-4 20-6 10-4 1-4 13-1 7-6 13-7 9-7 9-6 10-9 9-9 10-13 11-18 9-17 2-3 12-2z" fill="#5C6665"/>
<path transform="translate(304,409)" d="m0 0h1l1 37 3 22 6 25 8 22 8 17 14 22 13 16 12 14 11 10 19 14 24 13 16 7 10 4 17 5-3 2-2 1-2 3h-7l-5 4 7 2-1 2-8-1-21-8-19-10-21-12-3-2v-2l-4-2-10-9-2-1v-2h-2v-2l-4-2-8-8v-2h-2v-2h-2l-8-10v-2h-2l-18-27-9-19-3-5-5-14-3-6-3-11-3-8-3-17-1-2-1-14-1-4v-36h2v8l2-2 2 5h6l3-5z" fill="#505A5D"/>
<path transform="translate(433,437)" d="m0 0 9 3 6 4 5-2 3 4 3 7 1 4h2l4 8-1 3-2-4-2-2-2-4-3-2-3 1-11-1-9 2-8 1-7 4-2 4-2 1-2 10-5 10v10l1 5v14l-7 2-1 8-5 3-4 9-5 11-4 10 3 1 1 2v9l4 8 5 12 1 6h6l2 11 5 2-4 1-16-11v-3l-5-3-2-3-4-4-1-7-3-7-1-9-2-7v-10l3-9-1-9v-2l-1-3h-2l1-10 2-4v-8l2-4 10-4 4-3 2-6 3-6v-12l3-5 3-1 1-5 4-4 1-2h2v-3h4v-2l5-5 2-3z" fill="#E3D5BE"/>
<path transform="translate(426,214)" d="m0 0 5 1 3 4 1 5 1 29 22 8 8 3 10 6 13 11 9 11 6 10 6 15 4 7 2 2-5 2-4 3-7-4-8-9-9-17-9-10-7-6-16-8-14-5-16-3-4-4-1-4v-10l1-13-4 2-7-5 1-4-5-1-2-1 7-5 4-2h3v-2z" fill="#515C5E"/>
<path transform="translate(632,345)" d="m0 0 17 5 10 6 5 4 3 4h3l6 7 5 7 1 10-2 4-3 1-4 8-8 1v2l-9 1-2 1v17l-3 5-2-3 1-7-4-11-2-6-3-1-3 5-5 6-3 5-4 1v2l-4 1 1-6-2-5-2 2-2-5-2-10-3-2v-11l2-5 2-2h6l10 3v-7h8l3-2-2-4-2-10-3-1-5-2v-6z" fill="#FDD67A"/>
<path transform="translate(501,336)" d="m0 0h3l2 7 4 5 8 3-1 9-4 9-9 11-10 9-16 11-3 1v2h-2v26l3 14 9 19-2 4-2 6-1 2-5 1-4-3v-2h-3l-8-16-5-14-1-7v-26l3-8 4-6 7-7 17-11 10-9 7-11v-5l-4-4-1-5 1-3z" fill="#4E5A5C"/>
<path transform="translate(697,374)" d="m0 0 4 4v2h2l4 6 10 12 5 5 4 3v2h2v2l3 1 6 9 3 4 2 9v13l-3 13-1 10-4 16-4 12-2 4-5 5-1 4h-3v-3l-2 2h-1v10h-2l-2 7-2-1v-8l3-5 3-30 1-5v-25l-1-1-3-31-8-26-5-13-3-5z" fill="#E4A57D"/>
<path transform="translate(693,370)" d="m0 0h2l8 16 5 14 6 20 3 31 1 1v25l-3 24-1 11-2 5-5 4-7 2-5-1v-13l3-26 1-3v-45l-2-4-4-24-3-10h-2l-6-14-2-6 3 1 7 15 2 2 3-3 2 4v7 4h4l4-5-3-11-2-2-1-4-2 2-2-3 1-9-4 1-1-3h2z" fill="#EEEADA"/>
<path transform="translate(584,368)" d="m0 0h1v25l2 9 7 9 9 6 6 2h17v-2l4-2 5-8 4-4 2-4 5 3 4 13 1 8-1 6-3 1-4 4-13 4h-15l-15-3-9-4-7-5v-2h-2l-6-7-2-10-3-3v-8l-3-1-1-11 1 3h2v2l6 1 1 3 5-1-2-12-2-1-2 2v-5l2-5v-2h2l3 3z" fill="#EEEBDD"/>
<path transform="translate(376,597)" d="m0 0 7 1-2 1 3 5 8 2h3l7 3 22 12 16 7 10 4 17 5-3 2-2 1-2 3h-7l-5 4 7 2-1 2-8-1-21-8-19-10-21-12-3-2v-2l-4-2-10-9-2-1v-2h-2l1-3z" fill="#505B5D"/>
<path transform="translate(392,346)" d="m0 0h45l3 3 1 7-2 2-28 3-39 3-12 2h-10l-5-4-1-7 4-4 6-2 7-1z" fill="#4F5A5C"/>
<path transform="translate(426,214)" d="m0 0 5 1 3 4 1 5 1 29 7 5 2 2 3-1 5 6-1 9 3 2-4 1-14-5-16-3-4-4-1-4v-10l1-13-4 2-7-5 1-4-5-1-2-1 7-5 4-2h3v-2z" fill="#2F4B53"/>
<path transform="translate(432,367)" d="m0 0h8l3 2v7l-6 4-28 11-16 8-13 8-6 3-8 1-3-3-1-9 3-5 14-8 24-10 24-8z" fill="#304B54"/>
<path transform="translate(359,308)" d="m0 0 13 1 36 8 33 11v9l-1 1h-8l-19-5-56-8-4-4-1-8 1-3z" fill="#2F4B53"/>
<path transform="translate(457,218)" d="m0 0h8l1 6v16l-1 2-2 20-8-1-19-7-1-1-1-34 4 2 9-2h7z" fill="#EEEBDD"/>
<path transform="translate(680,380)" d="m0 0 4 4 3 10 1 3h2l5 14-1 4-2-1v-2h-2l-3-7-3-6h-5l3 7v6l-4 8-4 4h-13l-1 6h2l-1 5-4 6-7 3-8-2 2-4h3l-2-5 6-6 2-6v-15l4-2h8v-2l8-3 4-7 3-1 1-7z" fill="#E9B76E"/>
<path transform="translate(575,553)" d="m0 0 5 5 9 16 11 24 4 20v3l2 1-2 2h-12v-8h-2l-4-8-2-9-3-5-1-5-4-6-1-5-4-5 1-3 2 1 1-2 1 3h2v-4l-2-1-1-5-3 2-2-4 5-2-1-4z" fill="#4D646D"/>
<path transform="translate(467,637)" d="m0 0 25 4 11 1 29 1v1l-20 1v1l-11 1 7 7-3 1-1 4h-17l-23-4-12-3 2-2-7-2 5-5 5-1 4-1 1-3z" fill="#5B6565"/>
<path transform="translate(697,374)" d="m0 0 4 4v2h2l4 6 10 12 5 5 4 3v2h2v2l3 1 6 9 3 4 2 9v13h-2v-10l-2 1h-7l-5-2-2-4-4-1-1 2-2 1v18h-1l-3-31-8-26-5-13-3-5z" fill="#E8B66D"/>
<path transform="translate(473,396)" d="m0 0 4 2-2 1v4h-2v26l3 14 2 5-2 1 2 1 1 6-4 5h-6l-2-2-2 1-1-6h-2l-2-8-2-1v-13h-2l-1-7 3-5 2-10 1-3h2l1-3 4-1 1-5z" fill="#4F656E"/>
<path transform="translate(501,336)" d="m0 0h3l2 7 4 5 8 3-1 9-4 9-9 11-9 8-1-2h-2l-2 3-7 4-2-1-1-2h2l1-9 3-3v-2l3-1 5-5 1 1 3-3 2-7 3-2 1-4 2-4-5-2-3-3-1-5 1-3z" fill="#50656D"/>
<path transform="translate(598,571)" d="m0 0 4 1 10 10 7 8 5 4 3 7h-2l1 4 2 2-7 6-10 5h-2l-3-15-4-8-6-16v-6z" fill="#EAB188"/>
<path transform="translate(514,495)" d="m0 0 6 2 5 3 3 1v2l7 4 4 4v2l6 2 5 4v2l5 2 3 4v2h3v2l4 2 7 8 8 11 8 10 1 4h2l6 13 8 21 3 7 1 12-2 2h-3l-5-23-11-24-9-16-10-13-12-13-8-8-8-7-14-11-12-9z" fill="#EFEADB"/>
<path transform="translate(699,428)" d="m0 0h3l1 3 5-2 2-1v9l-1 18 1 2v23h2l1 6-1 11-2-3-1-3-2 2-1-5v-7l-2-1h-1v8h-2l-1 7h-1z" fill="#FCFCFB"/>
<path transform="translate(489,282)" d="m0 0 5 5 7 10 4 8 7 16 4 5-5 2-4 3-7-4-4-5h3l-3-1-2-4v-3l-2-1-3-13h-2l-5-10 1-2 5 1-1-4z" fill="#4E656D"/>
<path transform="translate(383,384)" d="m0 0 2 1 2 5v3l2 1v2l3-3h4l2 1v2l-10 6-11 7-10 2-4-3-1-9 3-5 14-8z" fill="#515C5E"/>
<path transform="translate(392,346)" d="m0 0h35l-2 2 2 1v4l2 3-13 1-5 2h-24l-4-2 1-4 4-4-4-2z" fill="#2F4B54"/>
<path transform="translate(359,308)" d="m0 0 13 1 18 4 2 3-8-1-11 2 5 4v2l11 1 3 3-13 1-22-3-4-4-1-8 1-3z" fill="#304C54"/>
<path transform="translate(458,302)" d="m0 0h7l7 6 2 6-1 7-1 3-5 3h-8l-6-4-3-5v-10l5-5z" fill="#304C54"/>
<path transform="translate(590,347)" d="m0 0 5 3-6 8-2 4-1 6h-2v5l-4-2v-2h-2l1 4-2 4 3-1 2 13v4l-4-3-1-3-3 1-5-9h-1v-10l3-4v3l4-1 1-2h-2v-3l-2-1 3-3v-5l7-1 2-3z" fill="#FDFDFD"/>
<path transform="translate(686,368)" d="m0 0h6l1 5v2h3l1 5-2 4 2 1h3l2 5 3 7 1 8h-3l-3 3h-4l-1-5h2l-1-7-2-2-1 5-2-4-3-3-6-14-2-1-1-7 4 1 1 1z" fill="#FDFDFC"/>
<path transform="translate(439,255)" d="m0 0 6 1 13 5 8 3 10 6 2 3-8-4v2l2 1 2 7 2 1-2 3-10-1-6-2-4-2-1-2-2-3 1-8-1-3-5-1-2 1v-2l-2-1z" fill="#4E5A5D"/>
<path transform="translate(473,396)" d="m0 0 4 2-2 1v4h-2v26l2 12-4-3-1-19-1-6-2 12-3 1v6l-3 1-5-1-1-7 3-5 2-10 1-3h2l1-3 4-1 1-5z" fill="#5C6666"/>
<path transform="translate(453,227)" d="m0 0h10l2 5-1 8h-5v5h-3l-2 6 1 3-1 5-9-2-3-1v-5l-1-2h6l3 2 1-1v-6l-4-2-2-5v-6h5l3 2v-2l-5-1 2-2z" fill="#FDFDFC"/>
<path transform="translate(680,405)" d="m0 0 2 1v6l-4 8-4 4h-13l-1 6h2l-1 5-4 6-7 3-8-2 2-4h3l-2-5 8-8 2 1-2 4h2v-2l3-2 2-5 4-2 1-3h9l3-1 2-3z" fill="#DFA27B"/>
<path transform="translate(613,332)" d="m0 0h24l12 3 6-1-1 3 2 1 1 3 2 1 3-3 4 4-5 1-2 5h-6l-4-4 2-1-2-5h-5v4l-4 1v-2h-4l-1-4-5-2v2h-6v2l-2 1h-8l3-3-3-2v-2l-2-1z" fill="#FDFDFD"/>
<path transform="translate(711,403)" d="m0 0 2 2 3 6 5-1 7 4v2l3 1 3 5v5l-2 2 1 3-7-2-8-5-4 2-3-20z" fill="#E4A57D"/>
<path transform="translate(692,438)" d="m0 0 5 1-1 26-2 5-5 2-2-7-2-1-1-18 3-4h3z" fill="#E4A47C"/>
<path transform="translate(490,642)" d="m0 0h13l29 1v1l-20 1v1l-11 1 7 7-3 1-1 4h-13l-3-2 1-2-2-2h3v-3l-2-1v-3l-4-2v-1z" fill="#515B5D"/>
<path transform="translate(564,543)" d="m0 0 5 1 7 8-1 3 1 4-5 1 1 3 3-2 3 7v4h-2l-1-1-1 2-7-8-2-5-1-3-2-1v-3l-4-1-3-3-1-4 7 2z" fill="#4F656D"/>
<path transform="translate(354,349)" d="m0 0h10l-3 3 1 9 4 1 3 2-9 2h-10l-5-4-1-7 4-4z" fill="#2F4B53"/>
<path transform="translate(301,399)" d="m0 0h5l1 4-1 13-3 3-3 4h-7l-4-4 1-8h-2l1-8 1-2h2v6 2l1 3h2l2-4h3z" fill="#5B6667"/>
<path transform="translate(503,350)" d="m0 0 4 1-5 10h-2l-1 7-3 4-3-1-2 3-5 5 1 2h-4v7l-1 4 7-2 2-5 3 1v3l-16 11-3 1v-4l-2-1-1-4h3v-2l2-1 1-5-1-2 4-2 1-3 9-7 6-7 5-8z" fill="#525D5F"/>
<path transform="translate(360,288)" d="m0 0h4l1 18 3 2-15 2-1 7-7-1v-8h5l1-6 1-2 5-1v-2l2-2-1-2-3-1 1-3 4 1z" fill="#FDFDFC"/>
<path transform="translate(575,553)" d="m0 0 5 5 9 16 4 8-1 3-1-4-6-2-1-2-8 2-4-4-1-5 3 1 1-2 1 3h2v-4l-2-1-1-5-3 2-2-4 5-2-1-4z" fill="#314D55"/>
<path transform="translate(726,501)" d="m0 0 2 1-3 5-3 7-9 16-3 9h-2l2-13-5 1-10 1-3-2 2-8 2 4 8-1 5-3h2v7l3-6h2l-1-10 4-4 1 3-1 2h3l1-6z" fill="#F0C7A3"/>
<path transform="translate(475,448)" d="m0 0 4 1 6 13-2 4-2 6-1 2-5 1-4-3v-2h-3l-2-3v-9l4 2h5l2-4h2l-2-5z" fill="#314C55"/>
<path transform="translate(359,311)" d="m0 0 3 1v2l-2 2-1 3 4-1 1-2 11 2 3 3v2l11 1 3 3-13 1-17-2-4-2-1-5h-2l1-5h2z" fill="#4F5A5C"/>
<path transform="translate(427,346)" d="m0 0h10l3 3 1 7-2 2-31 3v-2l7-2 1-1 12-1-3-3 2-3-6-1v-1z" fill="#525C5E"/>
<path transform="translate(569,361)" d="m0 0 5 1v3h2l-2 6-1-3-4 1v8l5 10h3l1-2 2 3-1 5h-2l-3-3-4-1v-2h-2l1 7 3 2-1 8 4 2 1 9-3-4-5-10-2-7-1-9v-9l1-9z" fill="#EEE8D9"/>
<path transform="translate(734,423)" d="m0 0 2 3 1 2 2-1 3 6v13h-2v-10l-2 1h-7l-5-2-2-4-4-1-1 2-2 1v18h-1l-2-19v-5l4-3 10 6 4 1-1-3z" fill="#EBB48A"/>
<path transform="translate(559,554)" d="m0 0h2v3l5 1 1 5 4 6 3 7 2 1 2 7 2 5 2 1v5l3 4 2 9h2v5l1 3h2v9l-3-3-5-14-7-19-8-16-7-11-4-5z" fill="#4E5B5D"/>
<path transform="translate(465,235)" d="m0 0h1l-1 7-2 20-8-1-5-2 3-1 1-5-1-3 2-7 1 2 2-1 1-4h5z" fill="#F0ECDF"/>
<path transform="translate(522,332)" d="m0 0 4 2 1 8-5 6-7 1-2-4-3 1-1-3 1-2-1-1 3-6 3-1 8 4-1-2z" fill="#F0EDE1"/>
<path transform="translate(308,471)" d="m0 0 2 2 5 20 8 22 8 17 14 22 9 11-1 2-7-8-5-6-2-6h-2l-4-8-6-9-5-10-2-8-2-1-3-9-3-3-1-9-3-14z" fill="#364F56"/>
<path transform="translate(597,606)" d="m0 0h2l2 5-1 6 4 1v3l2 1-2 2h-12v-8h-2l-2-4 1-3 3-1 2 1 1-2 2 1z" fill="#4E656E"/>
<path transform="translate(567,384)" d="m0 0 1 3h2v2l6 1 1 4v5l3 1 1-4h1v5l-2 1 1 4 2 2h-5l-1 7-2-3-1-5-3-3v-8l-3-1z" fill="#FDFDFD"/>
<path transform="translate(698,433)" d="m0 0 2 2v43h-3l-2-13 1-25z" fill="#EFC29F"/>
<path transform="translate(633,417)" d="m0 0 11 3 1 1v5l-4 3-4 1-7-1-2-3v-2l-4-2 7-3z" fill="#FCFBFA"/>
<path transform="translate(684,288)" d="m0 0 7 6 6 8 3 3v2h2l3 5 10 15v3h2l9 18v5l-3-3-4-10v-3h-2l-4-8-7-11-3-5-5-5-7-9-7-8z" fill="#EAE3D1"/>
<path transform="translate(662,575)" d="m0 0 2 1-9 10-10 10-10 7-5 1-1-3 4-4v-3l3-1h7l7-6 5-5z" fill="#EDE4D1"/>
<path transform="translate(499,211)" d="m0 0h33l16 3v1l-16-1h-37l-24 3-6 1 2-2 10-3z" fill="#EADECA"/>
<path transform="translate(488,491)" d="m0 0 6 2 1-2 6 4v3h-2v2h2v3h3v2h2v2h2v2l4 1 2 3 4 1 1 5-7-4-11-9-10-9z" fill="#5C6665"/>
<path transform="translate(532,525)" d="m0 0 6 5 7 6 3 1 7 10 1 4 6 2v3l3 1-2 1-2-1v-3l-4 1-7-7-7-8-12-11z" fill="#5B6565"/>
<path transform="translate(679,408)" d="m0 0 1 4-3 4-8 1h-4l-5 5-2 5-3 1v2h-2l1-4h-2l2-4 4-2 1-4 5-2 1-2h3v-2l3-1 1 4 4-1z" fill="#E9AF87"/>
<path transform="translate(469,470)" d="m0 0 4 1v2l3 1 1-1 3 1 1 5 6 2v6l1 2 4 2-3 1 2 4-3-1-7-8-12-15z" fill="#4C595C"/>
<path transform="translate(469,311)" d="m0 0 4 3 1 4-2 6-5 3h-8l-1-3 7 1-1-1-3-2v-2l1-4 4-3h3z" fill="#50656C"/>
<path transform="translate(376,597)" d="m0 0 7 1-2 1 3 5 5 3-1 4-7-1-2-4h-4l-2-1v-2l-1 2h-2v-2l-3-1 2-4z" fill="#5B6666"/>
<path transform="translate(489,282)" d="m0 0 5 5 7 10-1 2-3-2v-2l-11 2-4-7 1-2 5 1-1-4z" fill="#53656B"/>
<path transform="translate(501,336)" d="m0 0h3l2 7 4 5 8 3-1 5-3-3-7-1-6-3-3-3-1-5 1-3z" fill="#52656B"/>
<path transform="translate(681,398)" d="m0 0 4 1 3 6 2 3v4l4 1 1 6-2 1h-3l-2-4 1-5h-7l-3-9v-3z" fill="#F2C9A8"/>
<path transform="translate(390,597)" d="m0 0 12 1 2 11 5 2-4 1-16-11v-3z" fill="#E9D3BA"/>
<path transform="translate(693,543)" d="m0 0 4 1 1 4-1 2h-2l-3 9-6-4-1-5 3-6z" fill="#50676F"/>
<path transform="translate(512,326)" d="m0 0 7 1 5 5-2 2 2 2v7l-2-4-5-4-4-1-1 3h-3l1-4-2-2h2z" fill="#F1ECDF"/>
<path transform="translate(503,350)" d="m0 0 4 1-5 10h-2l-1 7-3 4-3-1-2 3-5 5 1 2-4-1-2-2 10-8 6-7 5-8z" fill="#314C54"/>
<path transform="translate(697,374)" d="m0 0 4 4v2h2l5 10 1 1 2 10 1 2v11l-2-4-6-19-4-10-3-5z" fill="#ECB790"/>
<path transform="translate(544,646)" d="m0 0 6 2-1 3-15 3-4-1v-5l11-1z" fill="#506770"/>
<path transform="translate(408,341)" d="m0 0h8l8 1 6-1 2 3-24 2h-8l-1-3 1-1z" fill="#FDFDFD"/>
<path transform="translate(634,249)" d="m0 0 9 3 4 3 5 4 11 8v2l4 2 5 5-4-1-7-6-1-2-4-1v-2l-5-2-4-3v-2l-7-2v-2l-5-2z" fill="#EAE0CD"/>
<path transform="translate(697,478)" d="m0 0h3l-4 31-1 9h-2l1-14v-13z" fill="#E9B76D"/>
<path transform="translate(479,379)" d="m0 0 3 1-3 3-2 7h-2v2l-4 2-3-5v-3z" fill="#354E55"/>
<path transform="translate(339,318)" d="m0 0h2v2l3-1-2 7-5 10-4-2h2v-9l3-5z" fill="#FEFEFE"/>
<path transform="translate(693,370)" d="m0 0h2l8 16 2 5-1 3-4-5-1-4-2 2-2-3 1-9-4 1-1-3h2z" fill="#EDEADB"/>
<path transform="translate(493,475)" d="m0 0 5 5 8 9 4 3v2l-5-2-3-4-5-1-2 2-2-10z" fill="#5B6665"/>
<path transform="translate(704,495)" d="m0 0h3l2 8h2l-1 9-3 3-6 1-2-1 1-3 5 2v-2h2v-8h-3z" fill="#FEFEFE"/>
<path transform="translate(476,442)" d="m0 0 1 2h2l4 10 2 2 2 3 2 6 8 11h-3l-8-11-10-20z" fill="#EDDEC8"/>
<path transform="translate(467,270)" d="m0 0 5 1 2 8 2 1-2 3-6-1-2-2z" fill="#50666F"/>
<path transform="translate(576,221)" d="m0 0 7 1 14 5 4 3 10 4 1 2 5 2-3 1-16-8-12-5-10-4z" fill="#EAE1CF"/>
<path transform="translate(592,432)" d="m0 0 8 2 15 3 1 2-5 1-11-1-7-3z" fill="#EAB483"/>
<path transform="translate(644,338)" d="m0 0h5l3 7-3 3-6-1-2-1 2-4z" fill="#EEEBDD"/>
<path transform="translate(439,255)" d="m0 0 6 1 15 6-4 2v2l-4-1-1-3-5-1-2 1v-2l-2-1z" fill="#4D595C"/>
<path transform="translate(433,348)" d="m0 0 5 3v4l-2 1h-7l-4-4 2-3z" fill="#4E666F"/>
<path transform="translate(515,358)" d="m0 0h1l-1 8-6 8-5 4v-3l2-4v-3h5l1-5 1-3h2z" fill="#4C595C"/>
<path transform="translate(427,346)" d="m0 0h10l3 3 1 7h-4l-1-4-3-3h-8l-4-2z" fill="#4A595C"/>
<path transform="translate(456,264)" d="m0 0 3 1v2h2v2h2v4h-7l-4-1v-5l4-1z" fill="#506770"/>
<path transform="translate(329,531)" d="m0 0 4 4 12 19 9 11-1 2-7-8-5-6-2-6h-2l-4-8-4-6z" fill="#3B5157"/>
<path transform="translate(330,337)" d="m0 0 3 1 1 9h-7l-2-2 1-3 2-4z" fill="#FEFEFE"/>
<path transform="translate(513,333)" d="m0 0 5 2 2 1-1 3-5 3h-3l1 4h-2l-1-3 1-2-1-1 3-6z" fill="#FEFEFE"/>
<path transform="translate(557,535)" d="m0 0 7 3 3 5h-3v-3l-8 1-1-4zm4 6h2l1 4-4 3v-2l-3-1h3z" fill="#596464"/>
<path transform="translate(374,310)" d="m0 0 12 2 4 2 2 2-8-1-11 1z" fill="#4D595C"/>
<path transform="translate(484,481)" d="m0 0h3v6l1 2 4 2-3 1 2 4-3-1-7-8v-4z" fill="#4F5B5D"/>
<path transform="translate(317,502)" d="m0 0 2 3 10 23 1 3-3-1-5-10-2-8-2-1-2-7z" fill="#385056"/>
<path transform="translate(569,361)" d="m0 0 5 1v3h2l-2 6-1-3-4 1-2 4-1-4 2-6z" fill="#EEE5D3"/>
<path transform="translate(643,347)" d="m0 0 6 1 14 9 5 5-1 3-4-5-10-7-10-4z" fill="#EAB978"/>
<path transform="translate(585,608)" d="m0 0h4v5l1 3h2v9l-3-3-4-10z" fill="#4E5A5C"/>
<path transform="translate(350,307)" d="m0 0 2 1v9l-7-1v-8z" fill="#FEFEFE"/>
<path transform="translate(493,287)" d="m0 0 5 5 3 5-1 2-3-2v-2l-7 1-1-5h2l1-3v3h2z" fill="#535D5F"/>
<path transform="translate(425,631)" d="m0 0 4 1 1 5-6 3-2-4-2-1z" fill="#50666E"/>
<path transform="translate(457,442)" d="m0 0 3 3 2 4v5h2l1 6h2l-1 5-3-4-6-15z" fill="#48595D"/>
<path transform="translate(298,385)" d="m0 0h7l1 1v6h2v3l-3 1v-4l-6-2z" fill="#5C6766"/>
<path transform="translate(584,368)" d="m0 0h1v6l-3 6-4-1-2 2v-5l2-5v-2h2l3 3z" fill="#F0EDE1"/>
<path transform="translate(640,396)" d="m0 0 4 2 2 4-5-2-3 5-5 6-2 2 1-5 4-6 3-5z" fill="#F2C9A8"/>
<path transform="translate(672,346)" d="m0 0 1 2-4 7-3 1-1-3-3-1v-2z" fill="#FEFEFE"/>
<path transform="translate(310,370)" d="m0 0h1l-1 10-2 12h-2l-1-11 2 1 1-9h2z" fill="#525C5E"/>
<path transform="translate(726,501)" d="m0 0 2 1-3 5-1 4h-4l-1 3-3-1v-6l3-2 1 3-1 2h3l1-6z" fill="#ECB990"/>
<path transform="translate(673,355)" d="m0 0h4v2h2l1 6h-8l-1-3z" fill="#FDFDFD"/>
<path transform="translate(361,281)" d="m0 0h4v6l-5 1v2l-4-1 2-5z" fill="#F2EFE4"/>
<path transform="translate(598,600)" d="m0 0 3 1 2 10v8l-3-1v-7l-2-5z" fill="#354F56"/>
<path transform="translate(351,579)" d="m0 0 3 3 3 6 3 1v2h-2l-1 2-4-4-3-1z" fill="#576162"/>
<path transform="translate(597,420)" d="m0 0 4 2h-2l-1 4-2 2-7-1 4-5z" fill="#FDFDFD"/>
<path transform="translate(684,288)" d="m0 0 7 6 6 8 2 6-4-4-9-11-2-2z" fill="#E9DFCC"/>
<path transform="translate(369,598)" d="m0 0h7l1 4-2 4-2-1v-2l-1 2h-2v-2l-3-1z" fill="#5A6464"/>
<path transform="translate(359,592)" d="m0 0 9 3-3 5-4-1-3-3z" fill="#545F60"/>
<path transform="translate(673,362)" d="m0 0h4l2 7 1 7-5-5-1-5-2-2z" fill="#F5F4EC"/>
<path transform="translate(503,350)" d="m0 0 4 1-5 10h-2l-2 4-1-2 5-8zm-7 15 2 2-3 1z" fill="#354F57"/>
<path transform="translate(583,375)" d="m0 0h1v19l-2 1v-5l-1-1v-9z" fill="#EFE3D1"/>
<path transform="translate(600,439)" d="m0 0h15l2 2-1 1-9 1-7-3z" fill="#F2C9A8"/>
<path transform="translate(714,512)" d="m0 0 2 3v4h-2l-2 7-2-1v-8z" fill="#E4A57C"/>
<path transform="translate(699,480)" d="m0 0h4v8h-2l-1 7h-1z" fill="#F7F6F1"/>
<path transform="translate(576,465)" d="m0 0 13 2 2 2-4 1h-10z" fill="#E9B871"/>
<path transform="translate(647,429)" d="m0 0 2 1-3 2zm-3 3 4 2-1 4-7 2-4-2 7-3z" fill="#E8AD84"/>
<path transform="translate(489,309)" d="m0 0 3 1 2 3 2 1-1 4 5 4-1 2-5-3-5-9z" fill="#364F56"/>
<path transform="translate(388,598)" d="m0 0 5 1 6 4 1 3h-4l-8-6z" fill="#E8DCC7"/>
<path transform="translate(552,546)" d="m0 0 3 1 1 4 6 2v3l3 1-2 1-2-1v-3l-4 1-7-7z" fill="#5A6463"/>
<path transform="translate(569,395)" d="m0 0 3 1-1 8 4 2 1 9-3-4-4-8z" fill="#EFECDF"/>
<path transform="translate(376,597)" d="m0 0 7 1-2 1 1 5h-2l-1 2-3-1z" fill="#52666C"/>
<path transform="translate(454,427)" d="m0 0h2v5h2v10l-2 1-2-10z" fill="#525C5E"/>
<path transform="translate(689,412)" d="m0 0 5 1 1 6-2 1h-3l-2-4z" fill="#F1C6A4"/>
<path transform="translate(501,299)" d="m0 0 3 3 6 15-1 4-6-13-2-5z" fill="#525D5F"/>
<path transform="translate(443,222)" d="m0 0h5l-6 7h-3l-1-5z" fill="#FCD57F"/>
<path transform="translate(718,335)" d="m0 0 4 4 3 7 1 7-3-3-5-13z" fill="#ECDFCB"/>
<path transform="translate(559,554)" d="m0 0h2v3l5 1v7h-2l-6-8z" fill="#525D5E"/>
<path transform="translate(507,509)" d="m0 0 5 1 2 3 4 1 1 5-7-4-5-4z" fill="#5C6666"/>
<path transform="translate(353,304)" d="m0 0h3l4 1-1 4-6 1-1 3-1-5z" fill="#EFEADB"/>
<path transform="translate(697,374)" d="m0 0 4 4v2h2l4 8-1 3v-2l-3-1-6-12z" fill="#EAB685"/>
<path transform="translate(680,377)" d="m0 0 3 1 5 11v6l-2-1-3-10z" fill="#EDE2CF"/>
<path transform="translate(392,346)" d="m0 0h15l6 1v1l-16 1-5-2z" fill="#525C5E"/>
<path transform="translate(478,296)" d="m0 0 4 2v3h-2l1 4-6-1z" fill="#FCFAF8"/>
<path transform="translate(488,491)" d="m0 0 6 2 1-2 2 7h-2l-1 2-3-3z" fill="#566264"/>
<path transform="translate(729,487)" d="m0 0 3 1-1 5-3 7h-2l1-7z" fill="#EEC094"/>
<path transform="translate(599,429)" d="m0 0h7l2 2v4l-6-1-1-3h-2z" fill="#FDFCFC"/>
<path transform="translate(613,422)" d="m0 0h8l2 5-4 1-4-1z" fill="#FEFEFE"/>
<path transform="translate(498,646)" d="m0 0h19l-4 2-10 1h-2v-2z" fill="#52676E"/>
<path transform="translate(446,219)" d="m0 0 5 1v2l-11 2-4-1h2v-2z" fill="#E6DCC7"/>
<path transform="translate(580,593)" d="m0 0 4 5 2 6v4h-2l-4-12z" fill="#525C5E"/>
<path transform="translate(336,568)" d="m0 0h5l2 6-3 1-5-5z" fill="#586363"/>
<path transform="translate(514,495)" d="m0 0 6 2 5 3 3 1-3 3-10-7z" fill="#EDE8D7"/>
<path transform="translate(485,462)" d="m0 0 3 1 7 10 2 4-4-2-8-12z" fill="#EDE3D1"/>
<path transform="translate(623,589)" d="m0 0 4 1 2 1v3h-2v2l-4-2-1-4z" fill="#EEE9DA"/>
<path transform="translate(704,411)" d="m0 0 3 3 2-2 1 10-3-2v-4l-4-1z" fill="#FEFEFE"/>
<path transform="translate(489,282)" d="m0 0 4 4 1 5h-5v-4l-2-2z" fill="#596464"/>
<path transform="translate(408,237)" d="m0 0 5 2v2l-5 3h-2v-6z" fill="#47575B"/>
<path transform="translate(557,535)" d="m0 0 6 2v3l-7 1-1-4z" fill="#5B6565"/>
<path transform="translate(704,389)" d="m0 0 5 2v7l-2 2z" fill="#EBB68D"/>
<path transform="translate(427,346)" d="m0 0h8l-2 3h-8l-4-2z" fill="#515B5D"/>
<path transform="translate(502,484)" d="m0 0 5 2 6 8-4-2-7-6z" fill="#E8D6BE"/>
<path transform="translate(501,336)" d="m0 0h3l1 3-2 2-6 2 1-5z" fill="#5D6766"/>
<path transform="translate(577,584)" d="m0 0 3 3v2l2 1-1 4h-2l-3-9z" fill="#4C5A5D"/>
<path transform="translate(520,518)" d="m0 0 4 2 1 2 4 1 1 5-8-6-3-3z" fill="#596363"/>
<path transform="translate(554,529)" d="m0 0 7 6 1 2-7-2-2-4z" fill="#4E5C5E"/>
<path transform="translate(732,476)" d="m0 0h2l1 5-2 6-3-3 2-4z" fill="#EDBF93"/>
<path transform="translate(457,442)" d="m0 0 3 3 2 4v6l-3-3-2-6z" fill="#3C5157"/>
<path transform="translate(509,373)" d="m0 0v3l-8 9h-2l2-4 5-5z" fill="#F0C687"/>
<path transform="translate(439,255)" d="m0 0 6 1 4 3h-2l-1 2-2 1v-2l-2-1z" fill="#4E5B5E"/>
</svg>